<svg xmlns="http://www.w3.org/2000/svg" viewBox="0 0 300 86" style="margin: 0;padding: 0;max-width: 187px;" class="koach-svg"><title>Dabble-Main</title><path d="M51,59.81a25.08,25.08,0,0,1-2,9.95A25.46,25.46,0,0,1,35.5,83.33a25.06,25.06,0,0,1-9.95,2,25.05,25.05,0,0,1-9.95-2A25.46,25.46,0,0,1,2,69.76a26,26,0,0,1,0-19.9A25.46,25.46,0,0,1,15.6,36.29a25.08,25.08,0,0,1,9.95-2,24.64,24.64,0,0,1,8.36,1.4,26.49,26.49,0,0,1,7.2,3.91V0.21H51v59.6ZM25.59,75.36a15.21,15.21,0,0,0,6-1.21A15.53,15.53,0,0,0,41.1,59.81v-0.1a15,15,0,0,0-1.2-6,15.7,15.7,0,0,0-3.32-4.93,15.51,15.51,0,0,0-5-3.33,15.61,15.61,0,0,0-12,0,15.51,15.51,0,0,0-5,3.33,16.21,16.21,0,0,0-3.37,5,15.19,15.19,0,0,0,0,12.08,16.17,16.17,0,0,0,3.37,5,15.46,15.46,0,0,0,5,3.33A15.21,15.21,0,0,0,25.59,75.36Z" style="fill:#00bcd4"/><path d="M81.91,34.31a24.8,24.8,0,0,1,10,2,26.59,26.59,0,0,1,8.2,5.51,25.69,25.69,0,0,1,7.57,18.26v25H97.71V80.44a27.4,27.4,0,0,1-7.24,3.92A25.76,25.76,0,0,1,72,83.77,25.8,25.8,0,0,1,58.29,70.1a24.88,24.88,0,0,1-2-10,25.29,25.29,0,0,1,2-10A25.65,25.65,0,0,1,71.93,36.33,24.81,24.81,0,0,1,81.91,34.31Zm0,41.54a15,15,0,0,0,6.13-1.26,16.11,16.11,0,0,0,8.36-8.41,15,15,0,0,0,1.26-6.07,15.23,15.23,0,0,0-1.26-6.17,16.1,16.1,0,0,0-8.36-8.41,15.53,15.53,0,0,0-12.27,0,16.1,16.1,0,0,0-8.36,8.41,15.2,15.2,0,0,0-1.26,6.17,15,15,0,0,0,1.26,6.07,16.11,16.11,0,0,0,8.36,8.41A15,15,0,0,0,82,75.84Z" style="fill:#00bcd4"/><path d="M139.82,34.31a25.08,25.08,0,0,1,9.95,2,25.46,25.46,0,0,1,13.57,13.57,26,26,0,0,1,0,19.9,25.46,25.46,0,0,1-13.57,13.57,26,26,0,0,1-19.9,0A25.46,25.46,0,0,1,116.3,69.76a25.06,25.06,0,0,1-2-9.95V0.21h10l-0.1,39.41a26.26,26.26,0,0,1,7.25-3.91A25,25,0,0,1,139.82,34.31Zm0,41.06a15.21,15.21,0,0,0,6-1.21,15.56,15.56,0,0,0,0-28.69,15.61,15.61,0,0,0-12,0,15.51,15.51,0,0,0-5,3.33,16.36,16.36,0,0,0-3.37,4.93,14.51,14.51,0,0,0-1.25,6v0.1a14.84,14.84,0,0,0,1.25,6,16.16,16.16,0,0,0,3.37,5,15.45,15.45,0,0,0,5,3.33A15.21,15.21,0,0,0,139.87,75.36Z" style="fill:#00bcd4"/><path d="M197.4,34.31a25.09,25.09,0,0,1,10,2,25.46,25.46,0,0,1,13.57,13.57,26,26,0,0,1,0,19.9,25.46,25.46,0,0,1-13.57,13.57,26,26,0,0,1-19.9,0,25.46,25.46,0,0,1-13.57-13.57,25.06,25.06,0,0,1-2-9.95V0.21h10l-0.1,39.41A26.26,26.26,0,0,1,189,35.71,25,25,0,0,1,197.4,34.31Zm0,41.06a15.21,15.21,0,0,0,6-1.21,15.56,15.56,0,0,0,0-28.69,15.6,15.6,0,0,0-12,0,15.5,15.5,0,0,0-5,3.33,16.38,16.38,0,0,0-3.37,4.93,14.51,14.51,0,0,0-1.25,6v0.1a14.84,14.84,0,0,0,1.25,6,16.17,16.17,0,0,0,3.37,5,15.45,15.45,0,0,0,5,3.33A15.2,15.2,0,0,0,197.44,75.36Z" style="fill:#00bcd4"/><path d="M231,0.4H241V84.73H231V0.4Z" style="fill:#00bcd4"/><path d="M278.64,63.09H259.22a15.69,15.69,0,0,0,2,4.88,15.33,15.33,0,0,0,3.43,3.91,15.7,15.7,0,0,0,4.54,2.56,15.32,15.32,0,0,0,5.31.92A15,15,0,0,0,280.81,74,16.07,16.07,0,0,0,286,70.24h11.69a17.16,17.16,0,0,1-1.4,2.75q-0.82,1.3-1.79,2.56a25.66,25.66,0,0,1-8.69,7.1,24.53,24.53,0,0,1-11.3,2.66,25.06,25.06,0,0,1-10-2A25.46,25.46,0,0,1,251,69.76a26,26,0,0,1,0-19.9,25.46,25.46,0,0,1,13.57-13.57,25.08,25.08,0,0,1,10-2A24.55,24.55,0,0,1,285.78,37a25.22,25.22,0,0,1,8.69,7.2A24.83,24.83,0,0,1,300,59.81a17.85,17.85,0,0,1-.29,3.28H278.64Zm-4.15-18.84A15.08,15.08,0,0,0,266,46.69a15.72,15.72,0,0,0-5.65,6.45h28.21q-0.48-.76-0.92-1.53a13.42,13.42,0,0,0-6.33-5.78A15.27,15.27,0,0,0,274.48,44.26Z" style="fill:#00bcd4"/><path d="M42.1,59.81c0,14.08-7.43,25.5-16.59,25.5a25.5,25.5,0,0,0,0-51C34.68,34.31,42.1,45.72,42.1,59.81Z" style="fill:#00bcd4"/><path d="M34,59.81c0,14.08-3.79,25.5-8.46,25.5,9.16,0,16.59-11.42,16.59-25.5s-7.43-25.5-16.59-25.5C30.19,34.31,34,45.72,34,59.81Z" style="fill:#0097a7"/><path d="M25.52,85.31c4.67,0,8.46-11.42,8.46-25.5s-3.79-25.5-8.46-25.5A25.5,25.5,0,1,0,25.52,85.31Z" style="fill:#00bcd4"/><path d="M3.49,59.81a22,22,0,0,1,22-22V81.84A22,22,0,0,1,3.49,59.81Z" style="fill:#b71c1c"/><path d="M20.18,65.61A9.14,9.14,0,0,1,21.45,63a9.15,9.15,0,0,1,1.27,2.63A1.27,1.27,0,0,1,20.18,65.61Z" style="fill:#231f20"/><path d="M22.72,54a9.14,9.14,0,0,1-1.27,2.63A9.14,9.14,0,0,1,20.18,54,1.27,1.27,0,1,1,22.72,54Z" style="fill:#231f20"/><path d="M19.22,56.14a9.13,9.13,0,0,1,1,2.76,9.13,9.13,0,0,1-2.76-1A1.27,1.27,0,1,1,19.22,56.14Z" style="fill:#231f20"/><path d="M17.43,61.68a9.14,9.14,0,0,1,2.76-1,9.12,9.12,0,0,1-1,2.76A1.27,1.27,0,1,1,17.43,61.68Z" style="fill:#231f20"/></svg>